<svg height="512pt" viewBox="-44 0 512 512" width="512pt" xmlns="http://www.w3.org/2000/svg"><path d="m44.136719 467.863281h335.449219v-423.726562h-335.449219zm35.3125-388.414062h264.828125v88.273437h-97.105469v264.828125h-70.621094v-264.828125h-97.101562zm0 0"/><path d="m406.070312 0h-388.414062c-9.738281.0273438-17.6289062 7.917969-17.65625 17.65625v476.6875c.0273438 9.738281 7.917969 17.628906 17.65625 17.65625h388.414062c9.738282-.027344 17.625-7.917969 17.652344-17.65625v-476.6875c-.027344-9.738281-7.914062-17.6289062-17.652344-17.65625zm-8.828124 467.863281c-.03125 9.738281-7.917969 17.625-17.65625 17.652344h-335.449219c-9.738281-.027344-17.625-7.914063-17.652344-17.652344v-423.726562c.027344-9.738281 7.914063-17.625 17.652344-17.652344h335.449219c9.738281.027344 17.625 7.914063 17.65625 17.652344zm0 0"/></svg>