<svg xmlns="http://www.w3.org/2000/svg" height="212pt" version="1.1" viewBox="0 -3 212.907 212" width="212pt">
<g id="surface1">
<path d="M 188.148438 146.003906 C 188.136719 142.085938 184.96875 138.917969 181.050781 138.902344 L 173.949219 138.902344 L 173.949219 188.605469 L 181.050781 188.605469 C 184.96875 188.59375 188.136719 185.421875 188.148438 181.503906 Z M 188.148438 146.003906 " style=" stroke:none;fill-rule:nonzero;fill:rgb(0%,84.313725%,87.45098%);fill-opacity:1;" />
<path d="M 173.949219 131.425781 C 173.949219 127.714844 170.941406 124.707031 167.230469 124.707031 L 28.398438 124.707031 C 24.476562 124.707031 21.300781 127.882812 21.300781 131.804688 L 21.300781 195.707031 C 21.300781 199.628906 24.476562 202.804688 28.398438 202.804688 L 167.230469 202.804688 C 170.941406 202.804688 173.949219 199.796875 173.949219 196.085938 Z M 173.949219 131.425781 " style=" stroke:none;fill-rule:nonzero;fill:rgb(67.45098%,67.058824%,69.411765%);fill-opacity:1;" />
<path d="M 127.800781 103.40625 C 127.800781 99.484375 124.621094 96.304688 120.699219 96.304688 L 92.300781 96.304688 C 88.378906 96.304688 85.199219 99.484375 85.199219 103.40625 L 85.199219 124.707031 L 127.800781 124.707031 Z M 127.800781 103.40625 " style=" stroke:none;fill-rule:nonzero;fill:rgb(0%,84.313725%,87.45098%);fill-opacity:1;" />
<path d="M 85.199219 71.453125 C 93.042969 71.460938 99.40625 65.113281 99.414062 57.269531 C 99.421875 49.425781 93.070312 43.0625 85.226562 43.054688 C 79.578125 43.046875 74.460938 46.394531 72.199219 51.574219 C 69.050781 58.742188 72.304688 67.105469 79.472656 70.253906 C 81.277344 71.050781 83.226562 71.457031 85.199219 71.453125 Z M 85.199219 71.453125 " style=" stroke:none;fill-rule:nonzero;fill:rgb(0%,84.313725%,87.45098%);fill-opacity:1;" />
<path d="M 10.648438 32.40625 L 46.148438 32.40625 C 50.070312 32.40625 53.25 29.226562 53.25 25.304688 L 53.25 4.003906 L 3.550781 4.003906 L 3.550781 25.304688 C 3.550781 29.226562 6.730469 32.40625 10.648438 32.40625 Z M 10.648438 32.40625 " style=" stroke:none;fill-rule:nonzero;fill:rgb(0%,84.313725%,87.45098%);fill-opacity:1;" />
<path d="M 202.351562 149.554688 L 188.148438 149.554688 L 188.148438 177.953125 L 202.351562 177.953125 C 206.273438 177.953125 209.449219 174.777344 209.449219 170.855469 L 209.449219 156.65625 C 209.449219 152.734375 206.269531 149.554688 202.351562 149.554688 Z M 202.351562 149.554688 " style=" stroke:none;fill-rule:nonzero;fill:rgb(100%,31.372549%,13.72549%);fill-opacity:1;" />
<path d="M 7.101562 138.902344 L 3.550781 138.902344 L 3.550781 153.105469 L 21.300781 153.105469 L 21.300781 138.902344 Z M 7.101562 138.902344 " style=" stroke:none;fill-rule:nonzero;fill:rgb(0%,84.313725%,87.45098%);fill-opacity:1;" />
<path d="M 17.75 174.40625 C 13.828125 174.40625 10.648438 177.582031 10.648438 181.503906 C 10.648438 185.425781 13.828125 188.605469 17.75 188.605469 L 21.300781 188.605469 L 21.300781 174.40625 Z M 17.75 174.40625 " style=" stroke:none;fill-rule:nonzero;fill:rgb(100%,31.372549%,13.72549%);fill-opacity:1;" />
<path d="M 156.199219 135.355469 L 163.300781 135.355469 L 163.300781 142.453125 L 156.199219 142.453125 Z M 156.199219 135.355469 " style=" stroke:none;fill-rule:nonzero;fill:rgb(13.72549%,12.156863%,12.54902%);fill-opacity:1;" />
<path d="M 202.351562 146.003906 L 191.699219 146.003906 C 191.699219 140.121094 186.933594 135.355469 181.050781 135.355469 L 177.5 135.355469 L 177.5 131.425781 C 177.488281 125.757812 172.898438 121.167969 167.230469 121.15625 L 131.351562 121.15625 L 131.351562 103.40625 C 131.351562 97.523438 126.582031 92.753906 120.703125 92.753906 L 108.609375 92.753906 L 96.617188 70.746094 C 104.089844 64.453125 105.046875 53.289062 98.753906 45.8125 C 92.460938 38.339844 81.296875 37.382812 73.824219 43.675781 C 72.648438 44.664062 71.605469 45.804688 70.726562 47.0625 L 45.367188 35.953125 L 46.148438 35.953125 C 52.03125 35.953125 56.800781 31.1875 56.800781 25.304688 L 56.800781 4.003906 C 56.800781 2.042969 55.210938 0.453125 53.25 0.453125 L 3.550781 0.453125 C 1.589844 0.453125 0 2.042969 0 4.003906 L 0 25.304688 C 0 31.1875 4.769531 35.953125 10.648438 35.953125 L 27.65625 35.953125 L 67.855469 53.542969 C 65.777344 63.09375 71.832031 72.523438 81.382812 74.601562 C 82.636719 74.871094 83.917969 75.007812 85.199219 75.003906 C 86.964844 74.980469 88.710938 74.6875 90.386719 74.140625 L 100.523438 92.753906 L 92.300781 92.753906 C 86.417969 92.753906 81.648438 97.523438 81.648438 103.402344 L 81.648438 121.152344 L 28.398438 121.152344 C 22.519531 121.152344 17.75 125.921875 17.75 131.804688 L 17.75 135.351562 L 10.652344 135.351562 L 10.652344 131.804688 L 3.550781 131.804688 L 3.550781 135.351562 C 1.589844 135.351562 0 136.941406 0 138.902344 L 0 153.101562 C 0 155.0625 1.589844 156.652344 3.550781 156.652344 L 3.550781 160.203125 L 10.648438 160.203125 L 10.648438 156.652344 L 17.75 156.652344 L 17.75 170.851562 C 11.867188 170.851562 7.101562 175.621094 7.101562 181.5 C 7.101562 187.382812 11.867188 192.152344 17.75 192.152344 L 17.75 195.699219 C 17.75 201.582031 22.519531 206.351562 28.398438 206.351562 L 167.230469 206.351562 C 172.894531 206.335938 177.484375 201.746094 177.5 196.078125 L 177.5 192.148438 L 181.050781 192.148438 C 186.929688 192.148438 191.699219 187.382812 191.699219 181.5 L 202.347656 181.5 C 208.230469 181.5 212.996094 176.730469 212.996094 170.851562 L 212.996094 156.652344 C 213 150.773438 208.230469 146.003906 202.351562 146.003906 Z M 7.101562 25.304688 L 7.101562 7.554688 L 49.699219 7.554688 L 49.699219 25.304688 C 49.699219 27.265625 48.109375 28.851562 46.152344 28.851562 L 10.648438 28.851562 C 8.691406 28.855469 7.101562 27.265625 7.101562 25.304688 Z M 74.550781 57.253906 C 74.550781 51.371094 79.316406 46.605469 85.199219 46.605469 C 91.082031 46.605469 95.847656 51.371094 95.847656 57.253906 C 95.847656 63.136719 91.082031 67.90625 85.199219 67.90625 C 79.316406 67.90625 74.550781 63.136719 74.550781 57.253906 Z M 88.75 103.40625 C 88.75 101.445312 90.339844 99.855469 92.300781 99.855469 L 120.699219 99.855469 C 122.660156 99.855469 124.25 101.445312 124.25 103.40625 L 124.25 121.15625 L 88.75 121.15625 Z M 7.101562 149.554688 L 7.101562 142.453125 L 17.75 142.453125 L 17.75 149.554688 Z M 14.199219 181.503906 C 14.199219 179.542969 15.789062 177.953125 17.75 177.953125 L 17.75 185.054688 C 15.789062 185.054688 14.199219 183.464844 14.199219 181.503906 Z M 170.398438 196.085938 C 170.398438 197.835938 168.980469 199.253906 167.230469 199.253906 L 28.398438 199.253906 C 26.4375 199.253906 24.851562 197.664062 24.851562 195.707031 L 24.851562 131.804688 C 24.851562 129.84375 26.441406 128.253906 28.398438 128.253906 L 167.230469 128.253906 C 168.980469 128.253906 170.402344 129.675781 170.402344 131.425781 L 170.402344 196.085938 Z M 184.601562 181.503906 C 184.601562 183.464844 183.011719 185.054688 181.050781 185.054688 L 177.5 185.054688 L 177.5 142.453125 L 181.050781 142.453125 C 183.011719 142.453125 184.601562 144.042969 184.601562 146.003906 Z M 205.898438 170.855469 C 205.898438 172.816406 204.308594 174.40625 202.351562 174.40625 L 191.699219 174.40625 L 191.699219 153.105469 L 202.351562 153.105469 C 204.3125 153.105469 205.898438 154.695312 205.898438 156.652344 Z M 205.898438 170.855469 " style=" stroke:none;fill-rule:nonzero;fill:rgb(13.72549%,12.156863%,12.54902%);fill-opacity:1;" />
</g>
</svg>