<svg xmlns="http://www.w3.org/2000/svg" height="600pt" version="1.1" viewBox="0 -10 600 600" width="600pt">
<g id="surface1">
<path d="M 440 380 L 460 380 L 460 400 L 440 400 Z M 440 380 " style=" stroke:none;fill-rule:nonzero;fill:rgb(0%,0%,0%);fill-opacity:1;" />
<path d="M 570 410 L 540 410 C 540 393.433594 526.566406 380 510 380 L 500 380 L 500 368.929688 C 499.960938 352.96875 487.03125 340.039062 471.070312 340 L 370 340 L 370 290 C 370 273.433594 356.566406 260 340 260 L 305.941406 260 L 272.148438 198 C 286.957031 185.53125 293.207031 165.617188 288.171875 146.917969 C 283.140625 128.226562 267.738281 114.140625 248.671875 110.785156 C 229.605469 107.4375 210.320312 115.429688 199.21875 131.289062 L 127.789062 100 L 130 100 C 146.566406 100 160 86.566406 160 70 L 160 10 C 160 4.476562 155.523438 0 150 0 L 10 0 C 4.476562 0 0 4.476562 0 10 L 0 70 C 0 86.566406 13.433594 100 30 100 L 77.910156 100 L 191.136719 149.550781 C 187.929688 164.3125 191.582031 179.734375 201.078125 191.484375 C 210.578125 203.238281 224.890625 210.042969 240 210 C 244.964844 209.925781 249.886719 209.109375 254.609375 207.570312 L 283.167969 260 L 260 260 C 243.433594 260 230 273.433594 230 290 L 230 340 L 80 340 C 63.433594 340 50 353.433594 50 370 L 50 380 L 30 380 L 30 370 L 10 370 L 10 380 C 4.476562 380 0 384.476562 0 390 L 0 430 C 0 435.523438 4.476562 440 10 440 L 10 450 L 30 450 L 30 440 L 50 440 L 50 480 C 33.433594 480 20 493.433594 20 510 C 20 526.566406 33.433594 540 50 540 L 50 550 C 50 566.566406 63.433594 580 80 580 L 471.070312 580 C 487.03125 579.960938 499.960938 567.03125 500 551.070312 L 500 540 L 510 540 C 526.566406 540 540 526.566406 540 510 L 570 510 C 586.566406 510 600 496.566406 600 480 L 600 440 C 600 423.433594 586.566406 410 570 410 Z M 20 70 L 20 20 L 140 20 L 140 70 C 140 75.523438 135.523438 80 130 80 L 30 80 C 24.476562 80 20 75.523438 20 70 Z M 210 160 C 210 143.433594 223.433594 130 240 130 C 256.566406 130 270 143.433594 270 160 C 270 176.566406 256.566406 190 240 190 C 223.433594 190 210 176.566406 210 160 Z M 250 290 C 250 284.476562 254.476562 280 260 280 L 340 280 C 345.523438 280 350 284.476562 350 290 L 350 340 L 250 340 Z M 20 420 L 20 400 L 50 400 L 50 420 Z M 40 510 C 40 504.476562 44.476562 500 50 500 L 50 520 C 44.476562 520 40 515.523438 40 510 Z M 480 551.070312 C 480 556 476 560 471.070312 560 L 80 560 C 74.476562 560 70 555.523438 70 550 L 70 370 C 70 364.476562 74.476562 360 80 360 L 471.070312 360 C 476 360 480 364 480 368.929688 Z M 520 510 C 520 515.523438 515.523438 520 510 520 L 500 520 L 500 400 L 510 400 C 515.523438 400 520 404.476562 520 410 Z M 580 480 C 580 485.523438 575.523438 490 570 490 L 540 490 L 540 430 L 570 430 C 575.523438 430 580 434.476562 580 440 Z M 580 480 " style=" stroke:none;fill-rule:nonzero;fill:rgb(0%,0%,0%);fill-opacity:1;" />
</g>
</svg>