<svg xmlns="http://www.w3.org/2000/svg" height="512pt" version="1.1" viewBox="0 0 512 512" width="512pt">
<g id="surface1">
<path d="M 181 512 L 331 512 L 331 301 L 181 301 Z M 211 406 C 211 397.710938 217.707031 391 226 391 C 234.289062 391 241 397.710938 241 406 L 241 436 C 241 444.289062 234.289062 451 226 451 C 217.707031 451 211 444.289062 211 436 Z M 211 406 " style=" stroke:none;fill-rule:nonzero;fill:rgb(0%,0%,0%);fill-opacity:1;" />
<path d="M 60 361 L 151 361 L 151 421 L 60 421 Z M 60 361 " style=" stroke:none;fill-rule:nonzero;fill:rgb(0%,0%,0%);fill-opacity:1;" />
<path d="M 361 361 L 452 361 L 452 421 L 361 421 Z M 361 361 " style=" stroke:none;fill-rule:nonzero;fill:rgb(0%,0%,0%);fill-opacity:1;" />
<path d="M 60 497 C 60 505.285156 66.714844 512 75 512 L 151 512 L 151 451 L 60 451 Z M 60 497 " style=" stroke:none;fill-rule:nonzero;fill:rgb(0%,0%,0%);fill-opacity:1;" />
<path d="M 185.859375 181 L 326.152344 181 L 256 117.910156 Z M 185.859375 181 " style=" stroke:none;fill-rule:nonzero;fill:rgb(0%,0%,0%);fill-opacity:1;" />
<path d="M 361 512 L 437 512 C 445.285156 512 452 505.285156 452 497 L 452 451 L 361 451 Z M 361 512 " style=" stroke:none;fill-rule:nonzero;fill:rgb(0%,0%,0%);fill-opacity:1;" />
<path d="M 359.507812 211 L 152.511719 211 L 63.867188 289.839844 C 62.65625 290.851562 61.257812 291.238281 60 292.113281 L 60 331 L 151 331 L 151 286 C 151 277.710938 157.710938 271 166 271 L 346 271 C 354.292969 271 361 277.710938 361 286 L 361 331 L 452 331 L 452 292.300781 C 451.046875 291.625 449.886719 291.324219 448.984375 290.570312 Z M 359.507812 211 " style=" stroke:none;fill-rule:nonzero;fill:rgb(0%,0%,0%);fill-opacity:1;" />
<path d="M 265.605469 3.476562 C 260.039062 -1.160156 251.957031 -1.160156 246.394531 3.476562 L 5.398438 221.4375 C -0.96875 226.742188 -1.824219 236.199219 3.476562 242.5625 L 22.679688 265.601562 C 27.980469 271.96875 37.441406 272.824219 43.804688 267.523438 L 256 77.554688 L 468.195312 267.523438 C 474.558594 272.824219 484.019531 271.96875 489.320312 265.601562 L 508.523438 242.5625 C 513.824219 236.199219 512.96875 226.742188 506.601562 221.4375 Z M 265.605469 3.476562 " style=" stroke:none;fill-rule:nonzero;fill:rgb(0%,0%,0%);fill-opacity:1;" />
</g>
</svg>