<svg height="512pt" viewBox="-51 0 512 512" width="512pt" xmlns="http://www.w3.org/2000/svg"><path d="m388.421875 217.6875-120.449219-120.394531c-13.914062-13.90625-32.410156-21.5625-52.085937-21.5625h-29.046875v-27.941407c0-26.351562-21.4375-47.789062-47.789063-47.789062h-.296875c-26.351562 0-47.789062 21.4375-47.789062 47.789062v27.941407h-14.484375c-42.171875 0-76.480469 34.292969-76.480469 76.449219v282.292968c0 42.691406 34.746094 77.4375 77.457031 77.449219l255.039063.078125h.023437c20.691407 0 40.144531-8.054688 54.777344-22.675781 14.640625-14.628907 22.703125-34.082031 22.703125-54.773438v-164.792969c0-19.667968-7.664062-38.160156-21.578125-52.070312zm-267.457031-169.898438c0-9.808593 7.980468-17.789062 17.789062-17.789062h.296875c9.808594 0 17.789063 7.980469 17.789063 17.789062v27.941407h-35.875zm259.035156 386.761719c0 12.675781-4.9375 24.589844-13.910156 33.554688-8.96875 8.960937-20.886719 13.894531-33.570313 13.894531h-.011719l-255.042968-.074219c-26.171875-.011719-47.464844-21.296875-47.464844-47.453125v-282.292968c0-25.613282 20.851562-46.449219 46.480469-46.449219h139.40625c11.664062 0 22.628906 4.539062 30.878906 12.78125l120.449219 120.394531c8.246094 8.242188 12.785156 19.199219 12.785156 30.851562zm0 0"/><path d="m252.609375 164.082031c-16.203125-16.195312-42.5625-16.195312-58.765625 0-7.851562 7.847657-12.175781 18.28125-12.175781 29.378907 0 11.097656 4.324219 21.53125 12.175781 29.378906l75 74.964844c8.101562 8.101562 18.742188 12.148437 29.382812 12.148437 10.640626 0 21.285157-4.050781 29.386719-12.144531 7.851563-7.847656 12.171875-18.28125 12.171875-29.382813 0-11.097656-4.320312-21.53125-12.171875-29.378906zm53.792969 112.507813c-4.507813 4.503906-11.84375 4.503906-16.351563 0l-75-74.96875c-2.183593-2.179688-3.382812-5.078125-3.382812-8.160156 0-3.082032 1.199219-5.980469 3.382812-8.164063 2.253907-2.25 5.214844-3.378906 8.175781-3.378906 2.960938 0 5.921876 1.128906 8.175782 3.378906l75 74.964844c2.183594 2.183593 3.382812 5.082031 3.382812 8.164062s-1.199218 5.980469-3.382812 8.164063zm0 0"/><path d="m169.820312 239.625c-3.78125-3.78125-8.808593-5.859375-14.15625-5.859375h-75.808593c-11.042969 0-20.023438 8.980469-20.023438 20.019531v178.171875c0 11.039063 8.980469 20.023438 20.023438 20.023438h160.976562c11.039063 0 20.023438-8.984375 20.023438-20.023438v-93.042969c0-5.351562-2.085938-10.378906-5.867188-14.160156zm61.035157 182.355469h-141.023438v-158.214844h61.699219l79.324219 79.285156zm0 0"/></svg>