<?xml version="1.0" encoding="iso-8859-1"?>
<!-- Generator: Adobe Illustrator 19.0.0, SVG Export Plug-In . SVG Version: 6.00 Build 0)  -->
<svg version="1.1" id="Capa_1" xmlns="http://www.w3.org/2000/svg" xmlns:xlink="http://www.w3.org/1999/xlink" x="0px" y="0px"
	 viewBox="0 0 512 512" style="enable-background:new 0 0 512 512;" xml:space="preserve">
<g>
	<g>
		<path d="M509.608,35.073L476.927,2.392c-3.192-3.19-8.364-3.19-11.555,0l-32.681,32.681c-1.533,1.533-2.393,3.61-2.393,5.778
			v102.582h-25.872V40.851c0-2.167-0.861-4.244-2.392-5.778L369.352,2.392c-3.192-3.19-8.364-3.19-11.555,0l-32.681,32.681
			c-1.532,1.533-2.392,3.61-2.392,5.778v102.582h-25.873V40.851c0-2.167-0.861-4.244-2.392-5.778L261.778,2.392
			c-3.192-3.19-8.364-3.19-11.555,0l-32.681,32.681c-1.532,1.533-2.392,3.61-2.392,5.778v102.582h-25.872V40.851
			c0-2.167-0.861-4.244-2.392-5.778L154.205,2.392c-3.192-3.19-8.364-3.19-11.555,0l-32.681,32.681
			c-1.534,1.533-2.394,3.61-2.394,5.778v102.582H81.702V40.851c0-2.167-0.861-4.244-2.392-5.778L46.629,2.392
			c-3.192-3.19-8.364-3.19-11.555,0L2.393,35.073C0.861,36.606,0,38.683,0,40.851V503.83c0,4.513,3.657,8.17,8.17,8.17h65.362
			c4.513,0,8.17-3.657,8.17-8.17V401.248h25.872V503.83c0,4.513,3.657,8.17,8.17,8.17h65.362c4.513,0,8.17-3.657,8.17-8.17V401.248
			h25.872V503.83c0,4.513,3.657,8.17,8.17,8.17h65.362c4.513,0,8.17-3.657,8.17-8.17V401.248h25.872V503.83
			c0,4.513,3.657,8.17,8.17,8.17h65.362c4.513,0,8.17-3.657,8.17-8.17V401.248h25.872V503.83c0,4.513,3.657,8.17,8.17,8.17h65.362
			c4.513,0,8.17-3.657,8.17-8.17V40.851C512,38.683,511.139,36.606,509.608,35.073z M65.362,495.66H16.34V44.235l24.511-24.511
			l24.511,24.511V495.66z M107.574,384.907H81.702v-49.021h25.872V384.907z M107.574,319.546H81.702v-94.411h25.872V319.546z
			 M172.936,495.66h-49.021V200.624c0-4.513-3.657-8.17-8.17-8.17s-8.17,3.657-8.17,8.17v8.17H81.702v-49.021h25.872v8.17
			c0,4.513,3.657,8.17,8.17,8.17s8.17-3.657,8.17-8.17V44.235l24.511-24.511l24.511,24.511V495.66z M215.149,384.907h-25.872
			v-49.021h25.872V384.907z M215.149,319.546h-25.872v-94.411h25.872V319.546z M215.149,208.795h-25.872v-49.021h25.872V208.795z
			 M280.511,495.66h-49.021V44.235L256,19.724l24.511,24.511V495.66z M296.851,159.773h25.872v49.021h-25.872V159.773z
			 M296.851,225.135h25.872v94.411h-25.872V225.135z M388.085,495.66h-49.021V376.737c0-4.513-3.657-8.17-8.17-8.17
			s-8.17,3.657-8.17,8.17v8.17h-25.872v-49.021h25.872v8.17c0,4.513,3.657,8.17,8.17,8.17s8.17-3.657,8.17-8.17V44.235
			l24.511-24.511l24.511,24.511V495.66z M430.298,384.907h-25.872v-49.021h25.872V384.907z M430.298,319.546h-25.872v-94.411h25.872
			V319.546z M430.298,208.795h-25.872v-49.021h25.872V208.795z M495.66,495.66h-49.021V44.235l24.511-24.511l24.511,24.511V495.66z"
			/>
	</g>
</g>
<g>
</g>
<g>
</g>
<g>
</g>
<g>
</g>
<g>
</g>
<g>
</g>
<g>
</g>
<g>
</g>
<g>
</g>
<g>
</g>
<g>
</g>
<g>
</g>
<g>
</g>
<g>
</g>
<g>
</g>
</svg>
