<svg height="480pt" viewBox="0 -9 480.56794 480" width="480pt" xmlns="http://www.w3.org/2000/svg"><path d="m238.621094 164.972656c-19.910156 25.074219-56 75.464844-56 99.3125 0 30.929688 25.074218 56 56 56 30.929687 0 56-25.070312 56-56 0-23.871094-36.085938-74.25-56-99.3125zm0 139.3125c-4.417969 0-8-3.582031-8-8 0-4.417968 3.582031-8 8-8 13.238281 0 23.976562-10.714844 24-23.953125 0-4.417969 3.582031-8 8-8 4.421875 0 8 3.582031 8 8-.023438 22.074219-17.925782 39.953125-40 39.953125zm0 0"/><path d="m471.152344 316.683594-22.730469-39.957032c-2.179687-3.84375-7.066406-5.1875-10.90625-3.003906-3.84375 2.179688-5.1875 7.066406-3.003906 10.90625l22.734375 39.960938c9.863281 17.332031 9.765625 38.605468-.261719 55.847656s-28.464844 27.847656-48.410156 27.847656h-172.695313v-37.257812l-45.257812 45.257812 45.257812 45.257813v-37.257813h172.695313c25.640625-.003906 49.34375-13.640625 62.234375-35.804687 12.890625-22.164063 13.019531-49.507813.34375-71.796875zm0 0"/><path d="m109.824219 174.726562 22.460937 12.964844 9.800782 5.65625-16.566407-61.816406-61.816406 16.570312 9.792969 5.65625 22.464844 12.96875-86.3125 149.558594c-12.824219 22.207032-12.867188 49.554688-.117188 71.800782 12.75 22.25 36.371094 36.035156 62.011719 36.199218l45.976562.289063h.046875c4.417969.015625 8.011719-3.554688 8.027344-7.972657.015625-4.417968-3.550781-8.011718-7.972656-8.027343l-45.972656-.289063c-19.945313-.125-38.316407-10.847656-48.234376-28.152344-9.917968-17.304687-9.882812-38.574218.089844-55.847656zm0 0"/><path d="m412.320312 172.878906-22.496093 13.007813-86.320313-149.601563c-12.714844-22.3125-36.449218-36.0625-62.128906-36h-.238281c-25.59375-.140625-49.300781 13.445313-62.113281 35.601563l-23.199219 39.671875c-1.472657 2.464844-1.511719 5.53125-.097657 8.03125 1.414063 2.503906 4.058594 4.054687 6.929688 4.066406 2.875.015625 5.53125-1.515625 6.964844-4.003906l23.242187-39.671875c9.890625-17.382813 28.464844-27.996094 48.464844-27.695313 19.972656-.054687 38.433594 10.644532 48.320313 28l86.34375 149.601563-22.464844 12.964843-9.792969 5.65625 61.816406 16.570313 16.566407-61.816406zm0 0"/></svg>